# xmcd CD database file
#
# Track frame offsets:
#	187
#	17025
#	21600
#	32362
#	43165
#	54712
#	67050
#	80062
#	94687
#	108450
#	116737
#	130612
#	138525
#
# Disc length: 1969 seconds
#
# Revision: 5
# Processed by: cddbd v1.5PL3 Copyright (c) Steve Scherf et al.
# Submitted via: CDex 1.51
#
DISCID=b907af0d
DTITLE=Various Artist - Louisiana Cajun French Music Vol. 2
DYEAR=1989
DGENRE=Folklore
TTITLE0=Bois Sec Ardoin and Canray Fontenot - Hack A 'Tit Moreau
TTITLE1=Bois Sec Ardoin and Canray Fontenot - Untitled Dance Tune
TTITLE2=Bois Sec Ardoin and Canray Fontenot - Eunice Two-Step
TTITLE3=Bois Sec Ardoin and Canray Fontenot - Quo Fa're
TTITLE4=Bois Sec Ardoin and Canray Fontenot - Jug au Plombeau
TTITLE5=Isom Fontenot-Aubrey Deville-Preston Manuel - La Betaille dans le Petit Arbre
TTITLE6=Isom Fontenot-Aubrey Deville-Preston Manuel - Le Vieux Boeuf et Le Vieux Charriot
TTITLE7=Adam and Cyprien Landreneau - La Robe de Rosalie
TTITLE8=Adam and Cyprien Landreneau - La Prairie Ronde
TTITLE9=Adam and Cyprien Landreneau - La Talle des Ronces
TTITLE10=Adam and Cyprien Landreneau - Les Piniers
TTITLE11=Adam and Cyprien Landreneau - Treville N'est Pas Pecheur
TTITLE12=Adam and Cyprien Landreneau - Danse de Limonade
EXTD=YEAR: 1989
EXTT0=
EXTT1=
EXTT2=
EXTT3=
EXTT4=
EXTT5=
EXTT6=
EXTT7=
EXTT8=
EXTT9=
EXTT10=
EXTT11=
EXTT12=
PLAYORDER=
